<?xml version="1.0" encoding="UTF-8"?>
<!DOCTYPE svg PUBLIC "-//W3C//DTD SVG 1.1//EN" "http://www.w3.org/Graphics/SVG/1.1/DTD/svg11.dtd">
<svg xmlns="http://www.w3.org/2000/svg" viewBox="0 0 48 48"><g data-name="09-DJ"><path d="M47 3v36a2.006 2.006 0 0 1-2 2H3a2.006 2.006 0 0 1-2-2V3a2.006 2.006 0 0 1 2-2h42a2.006 2.006 0 0 1 2 2zm-3 10a2 2 0 1 0-2 2 2.006 2.006 0 0 0 2-2zm0-7a2 2 0 1 0-2 2 2.006 2.006 0 0 0 2-2zm-7 15a16 16 0 1 0-16 16 16 16 0 0 0 16-16z" style="fill:#b674f2"/><circle cx="21" cy="21" r="17" style="fill:#8f4cd6"/><path d="M5 21a16 16 0 1 1 16 16A16 16 0 0 1 5 21z" style="fill:#cdd2e1"/><circle cx="21" cy="21" r="15" style="fill:#afb4c8"/><path d="M21 8A13 13 0 1 1 8 21 13 13 0 0 1 21 8z" style="fill:#9196aa"/><circle cx="21" cy="21" r="11" style="fill:#7e8596"/><circle cx="21" cy="21" r="9" style="fill:#636978"/><circle cx="21" cy="21" r="5" style="fill:#4e535e"/><circle cx="21" cy="21" r="4" style="fill:#64e1dc"/><circle cx="42" cy="6" r="3" style="fill:#8f4cd6"/><circle cx="42" cy="13" r="3" style="fill:#be1964"/><circle cx="42" cy="13" r="2" style="fill:#ff73a5"/><circle cx="42" cy="6" r="2" style="fill:#64e1dc"/><path d="M45 1H3a2.006 2.006 0 0 0-2 2v36a2.006 2.006 0 0 0 2 2h42a2.006 2.006 0 0 0 2-2V3a2.006 2.006 0 0 0-2-2zm1 37a2 2 0 0 1-2 2H4a2 2 0 0 1-2-2V4a2 2 0 0 1 2-2h40a2 2 0 0 1 2 2z" style="fill:#8f4cd6"/><path style="fill:#ffa1c8" d="M30 43h11v4H30z"/><path d="M43 19v16a4 4 0 0 1-3.03 3.88A3.906 3.906 0 0 1 39 39h-8a3.906 3.906 0 0 1-.97-.12A4 4 0 0 1 27 35v-6a2.006 2.006 0 0 1 2-2h2v-8a2.006 2.006 0 0 1 2-2h8a2.006 2.006 0 0 1 2 2z" style="fill:#ffbeaa"/><path d="M39.97 38.88A3.906 3.906 0 0 1 39 39h-7.9a4.7 4.7 0 0 1-1.067-.12L30 39v4h11v-4.549a3.929 3.929 0 0 1-1.03.429z" style="fill:#ff468c"/><path d="M31 27v-1.437A10.973 10.973 0 0 1 30.213 27z" style="fill:#7e8596"/><path d="m30 39 .033-.119a3.99 3.99 0 0 1-2.619-2.141 16.851 16.851 0 0 1-3.97 1.066 3.992 3.992 0 0 0 2.586 2.074L26 40h4z" style="fill:#8f4cd6"/><path d="M23.1 36.847a3.941 3.941 0 0 0 .34.958 16.851 16.851 0 0 0 3.97-1.066 4 4 0 0 1-.324-.944 15.894 15.894 0 0 1-3.986 1.052z" style="fill:#613394"/><path d="M27 34.744a14.9 14.9 0 0 1-4 1.107V36a3.949 3.949 0 0 0 .1.847 15.894 15.894 0 0 0 3.987-1.047A4.008 4.008 0 0 1 27 35z" style="fill:#afb4c8"/><path d="M23 33.831v2.02a14.9 14.9 0 0 0 4-1.107v-2.218a12.928 12.928 0 0 1-4 1.305z" style="fill:#9196aa"/><path d="M27 30.213a10.946 10.946 0 0 1-4 1.6v2.021a12.928 12.928 0 0 0 4-1.3z" style="fill:#7e8596"/><path d="M29 27h1.213A10.973 10.973 0 0 0 31 25.563V19a1.975 1.975 0 0 1 .279-1h-1.8A8.941 8.941 0 0 1 27 27.7v.3h-.349a8.969 8.969 0 0 1-3.627 1.763A2.068 2.068 0 0 0 23 30v1.81a10.946 10.946 0 0 0 4-1.6V29a2.006 2.006 0 0 1 2-2z" style="fill:#636978"/><path d="M27 20v7.7a8.941 8.941 0 0 0 2.477-9.7H29a2.006 2.006 0 0 0-2 2zM23.024 29.763A8.969 8.969 0 0 0 26.651 28H25a2 2 0 0 0-1.976 1.763z" style="fill:#4e535e"/><path style="fill:#613394" d="M26 40h4v1h-4z"/><path style="fill:#ffa1c8" d="M30 43h11v4H30z"/><path d="M39.97 38.88A3.906 3.906 0 0 1 39 39h-7.9a4.7 4.7 0 0 1-1.067-.12L30 39v4h11v-4.549a3.929 3.929 0 0 1-1.03.429z" style="fill:#ff468c"/><path d="M39.97 38.88A3.906 3.906 0 0 1 39 39h-7.9a4.7 4.7 0 0 1-1.067-.12L30 39v2l.033-.12A4.7 4.7 0 0 0 31.1 41H39a3.866 3.866 0 0 0 2-.549v-2a3.929 3.929 0 0 1-1.03.429z" style="fill:#be1964"/><path d="M41 45.88V43h-7.363A14.034 14.034 0 0 0 41 45.88z" style="fill:#ffb9d5"/><path d="M39 41h-7.121a8.077 8.077 0 0 0 1.758 2H41v-2.549A3.866 3.866 0 0 1 39 41z" style="fill:#ff73a5"/><path d="M34 41h5a3.866 3.866 0 0 0 2-.549v-2A3.866 3.866 0 0 1 39 39h-7.9a5.959 5.959 0 0 0 .776 2z" style="fill:#ff468c"/><path d="M21 4a16.992 16.992 0 0 1 16.507 13H41a2.006 2.006 0 0 1 2 2v15.831c.989.083 1.991.127 3 .148V4a2 2 0 0 0-2-2H7.03a29.3 29.3 0 0 0 1.294 7.7A16.94 16.94 0 0 1 21 4zm21-1a3 3 0 1 1-3 3 3 3 0 0 1 3-3zm0 7a3 3 0 1 1-3 3 3 3 0 0 1 3-3z" style="fill:#c78ff5"/><path d="M21 5a15.987 15.987 0 0 1 15.476 12h1.031A16.967 16.967 0 0 0 8.324 9.7c.113.364.235.725.362 1.084A15.964 15.964 0 0 1 21 5z" style="fill:#b674f2"/><path d="M45 1H7c0 .335.018.667.03 1H44a2 2 0 0 1 2 2v30.979c.333.007.665.021 1 .021V3a2.006 2.006 0 0 0-2-2z" style="fill:#b674f2"/><path d="M43 19v16a4 4 0 0 1-3.03 3.88A3.906 3.906 0 0 1 39 39h-8a3.906 3.906 0 0 1-.97-.12A4 4 0 0 1 27 35v-6a2.006 2.006 0 0 1 2-2h2v-8a2.006 2.006 0 0 1 2-2h8a2.006 2.006 0 0 1 2 2z" style="fill:#ffbeaa"/><path d="M39.97 36.88A3.906 3.906 0 0 1 39 37h-8a3.906 3.906 0 0 1-.97-.12A4 4 0 0 1 27 33v2a4 4 0 0 0 3.03 3.88A3.906 3.906 0 0 0 31 39h8a3.906 3.906 0 0 0 .97-.12A4 4 0 0 0 43 35v-2a4 4 0 0 1-3.03 3.88zM29 29h2v-2h-2a2.006 2.006 0 0 0-2 2v2a2.006 2.006 0 0 1 2-2z" style="fill:#faa68e"/><path style="fill:#faa68e" d="M30 27h1v7h-1z"/><path style="fill:#ffdecf" d="M35 17h2v2h-2zM38 17h2v2h-2zM33 17a2.006 2.006 0 0 0-2 2v2a2.006 2.006 0 0 1 2-2h1v-2zM41 17v2a2.006 2.006 0 0 1 2 2v-2a2.006 2.006 0 0 0-2-2z"/><path style="fill:#faa68e" d="M40 19h1v8h-1z"/><path style="fill:#ffbeaa" d="M40 17h1v2h-1z"/><path style="fill:#faa68e" d="M37 19h1v8h-1z"/><path style="fill:#ffbeaa" d="M37 17h1v2h-1z"/><path style="fill:#faa68e" d="M34 19h1v8h-1z"/><path style="fill:#ffbeaa" d="M34 17h1v2h-1z"/><ellipse cx="34.003" cy="5.987" rx="1.642" ry="2.286" transform="rotate(-45.02 34.003 5.987)" style="fill:#f6fafd"/><ellipse cx="36" cy="10" rx=".825" ry="1.148" transform="rotate(-45.02 36 10)" style="fill:#f6fafd"/><ellipse cx="42.746" cy="5.5" rx=".413" ry=".574" transform="rotate(-45.02 42.746 5.5)" style="fill:#f6fafd"/><ellipse cx="42.746" cy="12.5" rx=".413" ry=".574" transform="rotate(-45.02 42.746 12.5)" style="fill:#f6fafd"/><path d="m22.855 21.521.54-.815a.629.629 0 0 0-.52-.977h-.864l-.452-.91a.65.65 0 0 0-1.118 0l-.452.91h-.864a.629.629 0 0 0-.52.977l.54.815-.569 1.049a.632.632 0 0 0 .07.7.624.624 0 0 0 .677.193L21 22.906l1.677.562a.624.624 0 0 0 .677-.193.632.632 0 0 0 .07-.7z" style="fill:#fdffbf"/><rect x="35" y="1" width="6" height="1" rx=".5" ry=".5" style="fill:#8f4cd6"/><path d="M41.5 1.5a.5.5 0 0 0 .5.5h1a.5.5 0 0 0 0-1h-1a.5.5 0 0 0-.5.5z" style="fill:#8f4cd6"/><path d="M3.5 40.5a.5.5 0 0 0 .5.5h15a.5.5 0 0 0 0-1H4a.5.5 0 0 0-.5.5zM20.5 40.5a.5.5 0 0 0 .5.5h1a.5.5 0 0 0 0-1h-1a.5.5 0 0 0-.5.5z" style="fill:#613394"/><path d="M46 39a1 1 0 0 1-1 1h-2v2h2a3 3 0 0 0 3-3V11h-2zM46 7h2v2h-2z"/><path d="M45 0H3a3 3 0 0 0-3 3v36a3 3 0 0 0 3 3h21v-2H3a1 1 0 0 1-1-1V3a1 1 0 0 1 1-1h42a1 1 0 0 1 1 1v2h2V3a3 3 0 0 0-3-3zM26 40h2v2h-2z"/><path d="M36.763 14.622A16.993 16.993 0 1 0 25.25 37.464l-.5-1.936a15 15 0 1 1 10.159-20.155z"/><path d="M16 21a5 5 0 1 0 5-5 5.006 5.006 0 0 0-5 5zm8 0a3 3 0 1 1-3-3 3 3 0 0 1 3 3z"/><path d="m31.648 15.461 1.773-.925a14 14 0 0 0-26.38 5.388l1.994.152a12 12 0 0 1 22.613-4.615zM21 33A12.046 12.046 0 0 1 9.035 21.924l-1.994.152a14.013 14.013 0 0 0 18.267 12.249l-.616-1.9A11.985 11.985 0 0 1 21 33zM42 9a3 3 0 1 0-3-3 3 3 0 0 0 3 3zm0-4a1 1 0 1 1-1 1 1 1 0 0 1 1-1zM42 16a3 3 0 1 0-3-3 3 3 0 0 0 3 3zm0-4a1 1 0 1 1-1 1 1 1 0 0 1 1-1z"/><path d="M44 35V19a3 3 0 0 0-3-3h-8a3 3 0 0 0-3 3v7h-1a3 3 0 0 0-3 3v6a5 5 0 0 0 3 4.576V47a1 1 0 0 0 1 1h11a1 1 0 0 0 1-1v-8.026A4.977 4.977 0 0 0 44 35zM31 46v-2h9v2zm9-4h-9v-2h8a5 5 0 0 0 1-.1zm2-7a3 3 0 0 1-3 3h-8a3 3 0 0 1-3-3v-6a1 1 0 0 1 1-1h1v6h2V19a1 1 0 0 1 1-1v9h2v-9h1v9h2v-9h1v9h2v-9a1 1 0 0 1 1 1z"/></g></svg>